<mxfile host="app.diagrams.net" modified="2023-08-25T13:48:54.291Z" agent="Mozilla/5.0 (Macintosh; Intel Mac OS X 10_15_7) AppleWebKit/537.36 (KHTML, like Gecko) Chrome/114.0.0.0 Safari/537.36" etag="BwFSMVwutqOdIIQ4VfnR" version="21.3.7" type="github">
  <diagram name="第 1 页" id="NpRZDUOhLOol6-K-nm5H">
    <mxGraphModel dx="1242" dy="738" grid="1" gridSize="10" guides="1" tooltips="1" connect="1" arrows="1" fold="1" page="1" pageScale="1" pageWidth="827" pageHeight="1169" math="0" shadow="0">
      <root>
        <mxCell id="0" />
        <mxCell id="1" parent="0" />
        <mxCell id="Uyl7n-S4hZk6NWNyX160-1" value="&lt;font style=&quot;font-size: 24px;&quot;&gt;助手研效&lt;br&gt;提升&lt;/font&gt;" style="ellipse;whiteSpace=wrap;html=1;aspect=fixed;shadow=0;" vertex="1" parent="1">
          <mxGeometry x="310" y="230" width="150" height="150" as="geometry" />
        </mxCell>
        <mxCell id="Uyl7n-S4hZk6NWNyX160-4" value="&lt;h1&gt;痛点&lt;/h1&gt;&lt;p&gt;&lt;font style=&quot;font-size: 16px;&quot;&gt;技术栈陈旧，多业务传统双端开发&lt;/font&gt;&lt;/p&gt;" style="text;html=1;strokeColor=none;fillColor=none;spacing=5;spacingTop=-20;whiteSpace=wrap;overflow=hidden;rounded=0;" vertex="1" parent="1">
          <mxGeometry x="70" y="150" width="190" height="100" as="geometry" />
        </mxCell>
      </root>
    </mxGraphModel>
  </diagram>
</mxfile>
